<?xml version="1.0" standalone="no"?>
<!DOCTYPE svg PUBLIC "-//W3C//DTD SVG 20010904//EN"
 "http://www.w3.org/TR/2001/REC-SVG-20010904/DTD/svg10.dtd">
<svg version="1.0" xmlns="http://www.w3.org/2000/svg"
 width="732.000000pt" height="384.000000pt" viewBox="0 0 732.000000 384.000000"
 preserveAspectRatio="xMidYMid meet">

<g transform="translate(0.000000,384.000000) scale(0.100000,-0.100000)"
fill="#000000" stroke="none">
<path d="M4095 3070 c4 -11 2 -20 -4 -20 -6 0 -11 5 -11 10 0 6 -5 10 -11 10
-6 0 -9 -6 -6 -14 8 -19 -3 -28 -19 -15 -8 7 -14 7 -19 -1 -3 -5 -1 -10 5 -10
6 0 8 -5 3 -12 -4 -7 -9 -22 -10 -33 -5 -28 -363 -385 -387 -385 -22 0 -513
-226 -535 -246 -7 -6 -10 -18 -6 -24 6 -10 42 -11 151 -5 137 6 143 6 164 -15
20 -20 21 -28 15 -118 -3 -53 -8 -116 -11 -140 -4 -33 -2 -43 11 -48 9 -4 22
0 29 7 21 22 236 490 236 512 0 13 64 86 183 205 100 101 190 188 200 193 10
6 32 11 48 11 21 1 27 4 19 12 -15 15 -12 29 5 23 8 -4 17 -2 20 3 4 6 1 10
-4 10 -6 0 -11 7 -11 16 0 13 3 14 13 5 18 -14 30 -2 16 15 -7 9 -7 19 1 34
17 32 -1 47 -37 31 -19 -9 -29 -9 -31 -2 -2 6 -8 11 -14 11 -5 0 -6 -9 -3 -20z
m-471 -549 c27 -28 28 -31 12 -47 -17 -16 -19 -15 -48 14 -20 19 -29 36 -25
46 9 24 30 19 61 -13z m-79 -81 c23 -24 26 -32 15 -45 -18 -22 -33 -19 -64 14
-24 25 -26 32 -15 45 20 22 32 20 64 -14z m5 -165 c0 -8 -4 -15 -10 -15 -5 0
-10 7 -10 15 0 8 5 15 10 15 6 0 10 -7 10 -15z m-40 -5 c0 -5 -7 -10 -15 -10
-8 0 -15 5 -15 10 0 6 7 10 15 10 8 0 15 -4 15 -10z m18 -41 c-2 -6 -8 -10
-13 -10 -5 0 -11 4 -13 10 -2 6 4 11 13 11 9 0 15 -5 13 -11z"/>
<path d="M512 1800 c-28 -12 -40 -39 -21 -51 19 -12 6279 -12 6298 0 19 12 7
39 -24 51 -34 13 -6221 13 -6253 0z"/>
<path d="M498 1629 c-24 -13 -23 -36 1 -49 27 -14 6255 -14 6282 0 24 14 24
36 0 50 -27 14 -6259 14 -6283 -1z"/>
<path d="M6000 1031 c0 -346 0 -348 23 -382 30 -44 83 -63 152 -52 27 5 49 12
48 16 -2 4 -3 21 -3 37 0 29 -2 30 -45 30 -32 0 -51 6 -65 20 -19 19 -20 33
-20 350 l0 330 -45 0 -45 0 0 -349z"/>
<path d="M6330 990 l0 -390 45 0 45 0 0 140 0 140 34 0 c32 0 38 -7 128 -137
l95 -138 51 -3 c29 -2 52 0 52 4 0 9 -199 282 -211 289 -5 4 26 47 68 97 43
49 88 103 101 119 l23 29 -53 -1 -53 0 -84 -100 c-75 -89 -87 -99 -117 -99
l-34 0 0 220 0 220 -45 0 -45 0 0 -390z"/>
<path d="M490 1330 l0 -40 125 0 125 0 0 -346 0 -345 48 3 47 3 3 343 2 342
120 0 120 0 0 40 0 40 -295 0 -295 0 0 -40z"/>
<path d="M4616 1353 c2 -10 38 -178 79 -373 55 -261 79 -358 92 -368 27 -19
137 -16 155 6 8 9 40 142 72 302 32 157 62 306 68 333 5 26 15 47 22 47 9 0
35 -111 82 -337 38 -185 75 -342 82 -350 17 -17 132 -18 155 0 12 9 38 115 95
385 l78 372 -50 0 -51 0 -64 -322 c-35 -178 -66 -333 -68 -345 -4 -19 -33 -34
-33 -18 0 18 -133 644 -140 663 -9 20 -16 22 -84 22 -62 0 -77 -3 -84 -17 -5
-10 -40 -165 -77 -345 -48 -232 -72 -328 -82 -328 -7 0 -13 3 -14 8 0 4 -30
158 -67 342 l-68 335 -51 3 c-45 3 -51 1 -47 -15z"/>
<path d="M5724 1356 c-3 -8 -4 -31 -2 -52 3 -39 3 -39 51 -42 l47 -3 0 55 0
56 -45 0 c-30 0 -47 -5 -51 -14z"/>
<path d="M1223 1150 c-128 -27 -167 -91 -168 -275 0 -124 12 -169 57 -221 76
-87 310 -86 387 1 41 47 55 102 55 220 1 148 -30 221 -109 256 -49 22 -163 32
-222 19z m160 -84 c55 -22 71 -58 75 -166 5 -111 -7 -167 -44 -201 -23 -21
-34 -24 -109 -24 -74 0 -86 3 -109 24 -38 36 -49 81 -44 195 4 115 18 148 71
171 41 18 119 19 160 1z"/>
<path d="M1932 1142 c-29 -11 -73 -33 -97 -51 l-44 -31 -3 37 c-3 36 -5 38
-40 41 l-38 3 0 -270 0 -271 45 0 45 0 2 201 3 201 56 34 c94 59 176 55 198
-8 7 -18 11 -115 11 -230 l0 -199 43 3 42 3 3 197 2 197 29 21 c88 62 167 75
206 35 25 -24 25 -24 25 -240 l0 -215 45 0 45 0 0 225 c0 254 -6 282 -62 311
-70 37 -173 17 -265 -52 l-32 -24 -13 27 c-32 64 -116 87 -206 55z"/>
<path d="M2790 1149 c-52 -6 -99 -14 -104 -19 -5 -5 -6 -20 -2 -34 l6 -26 151
3 c148 2 151 2 170 -22 12 -15 19 -39 19 -66 l0 -42 -137 -5 c-182 -6 -221
-26 -237 -120 -37 -211 158 -296 350 -152 l32 23 6 -22 c3 -12 6 -32 6 -44 0
-20 5 -23 35 -23 l35 0 0 228 c0 207 -2 230 -20 259 -39 64 -125 81 -310 62z
m240 -339 l0 -60 -46 -29 c-54 -35 -133 -56 -172 -46 -48 12 -62 33 -62 95 0
88 16 97 178 99 l102 1 0 -60z"/>
<path d="M3370 1150 c-30 -6 -54 -20 -72 -40 -25 -27 -28 -38 -28 -99 0 -54 4
-74 21 -95 29 -37 43 -43 181 -77 68 -17 131 -37 140 -46 25 -22 23 -75 -3
-99 -18 -17 -40 -19 -176 -22 l-154 -3 3 -32 c3 -31 4 -32 68 -40 97 -12 260
-3 298 17 49 25 67 61 67 131 0 104 -30 129 -201 166 -140 31 -154 39 -154 94
0 70 18 77 192 74 l143 -2 3 30 c3 25 -1 32 -20 36 -46 11 -264 16 -308 7z"/>
<path d="M3830 1105 l0 -35 174 -2 174 -3 -174 -194 c-163 -181 -174 -196
-174 -232 l0 -39 228 2 227 3 3 37 3 38 -176 2 -176 3 170 190 c157 175 171
193 171 227 l0 38 -225 0 -225 0 0 -35z"/>
<path d="M5730 869 l0 -270 43 3 42 3 3 268 2 267 -45 0 -45 0 0 -271z"/>
</g>
</svg>
