<?xml version="1.0" encoding="UTF-8" standalone="no"?>
<!-- Uploaded to: SVG Repo, www.svgrepo.com, Generator: SVG Repo Mixer Tools -->

<svg
   fill="#000000"
   height="26"
   width="26"
   version="1.1"
   id="Layer_1"
   viewBox="0 0 16.64 16.64"
   xml:space="preserve"
   xmlns="http://www.w3.org/2000/svg"
   xmlns:svg="http://www.w3.org/2000/svg"><defs
   id="defs8" />&#10;<g
   id="g2"
   transform="scale(0.0325)">&#10;	<g
   id="g1">&#10;		<path
   d="M 138.667,256 185.6,206.933 c 8.533,-8.533 8.533,-21.333 0,-29.867 -8.533,-8.534 -21.333,-8.533 -29.867,0 l -59.733,64 c -8.533,8.533 -6.4,21.333 0,29.867 l 59.733,64 c 8.533,8.533 21.333,8.533 29.867,0 8.534,-8.533 8.533,-21.333 0,-29.867 z"
   id="path1" />&#10;	</g>&#10;</g>&#10;<g
   id="g4"
   transform="scale(0.0325)">&#10;	<g
   id="g3">&#10;		<path
   d="m 420.267,241.067 -64,-64 c -8.533,-8.533 -21.333,-8.533 -29.867,0 -8.534,8.533 -8.533,21.333 0,29.867 L 375.467,256 326.4,305.067 c -8.533,8.533 -8.533,21.333 0,29.867 8.533,8.534 21.333,8.533 29.867,0 l 64,-64 c 8.533,-8.534 8.533,-21.334 0,-29.867 z"
   id="path2" />&#10;	</g>&#10;</g>&#10;<g
   id="g6"
   transform="scale(0.0325)">&#10;	<g
   id="g5">&#10;		<path
   d="M 283.733,170.667 C 273.066,166.4 260.266,172.8 256,183.467 l -42.667,128 c -4.267,10.667 2.133,23.467 12.8,27.733 12.8,4.267 25.6,-2.133 27.733,-12.8 l 42.667,-128 c 4.267,-10.667 -2.133,-23.467 -12.8,-27.733 z"
   id="path4" />&#10;	</g>&#10;</g>&#10;<g
   id="g8"
   transform="scale(0.0325)">&#10;	<g
   id="g7">&#10;		<path
   d="M 426.667,0 H 85.333 C 38.4,0 0,38.4 0,85.333 V 426.666 C 0,473.6 38.4,512 85.333,512 H 426.666 C 473.6,512 512,473.6 512,426.667 V 85.333 C 512,38.4 473.6,0 426.667,0 Z m 42.666,426.667 c 0,23.467 -19.2,42.667 -42.667,42.667 H 85.333 c -23.467,0 -42.667,-19.2 -42.667,-42.667 V 85.333 c 0,-23.467 19.2,-42.667 42.667,-42.667 h 341.333 c 23.467,0 42.667,19.2 42.667,42.667 z"
   id="path6" />&#10;	</g>&#10;</g>&#10;</svg>
