<?xml version="1.0" encoding="UTF-8" standalone="no"?>
<!-- Uploaded to: SVG Repo, www.svgrepo.com, Generator: SVG Repo Mixer Tools -->

<svg
   fill="#000000"
   width="26"
   height="26"
   viewBox="0 0 0.78 0.78"
   version="1.1"
   id="svg1"
   xmlns="http://www.w3.org/2000/svg"
   xmlns:svg="http://www.w3.org/2000/svg">
  <defs
     id="defs1" />
  <path
     d="m 0.78,0.0433333 v 0.13 H 0 v -0.13 A 0.04333333,0.04333333 0 0 1 0.0433333,0 H 0.7366667 A 0.04333333,0.04333333 0 0 1 0.78,0.0433333 Z M 0,0.26 H 0.78 V 0.7366667 A 0.04333333,0.04333333 0 0 1 0.736667,0.78 H 0.0433333 A 0.04220667,0.04220667 0 0 1 0.0234,0.77454 l 0.1554367,-0.1554367 0.1004466,0.06695 A 0.04333333,0.04333333 0 0 0 0.33397,0.6806367 L 0.420637,0.59397 A 0.04333333,0.04333333 0 0 0 0.3593633,0.5326967 L 0.29783,0.59423 0.1973833,0.52728 A 0.04333333,0.04333333 0 0 0 0.1426963,0.5327 L 0,0.6753933 Z m 0.4893633,0.20397 a 0.04333333,0.04333333 0 0 0 0.061273,0 L 0.5939693,0.420637 A 0.04333333,0.04333333 0 0 0 0.5326963,0.359364 l -0.043333,0.043333 a 0.04333333,0.04333333 0 0 0 0,0.061273 z"
     id="path1"
     style="stroke-width:0.0433334" />
</svg>
