<?xml version="1.0" encoding="UTF-8" standalone="no"?>
<!-- Uploaded to: SVG Repo, www.svgrepo.com, Generator: SVG Repo Mixer Tools -->

<svg
   fill="#000000"
   width="26"
   height="25.999985"
   viewBox="0 0 1.04 1.0399994"
   version="1.1"
   id="svg1"
   xmlns="http://www.w3.org/2000/svg"
   xmlns:svg="http://www.w3.org/2000/svg">
  <defs
     id="defs1" />
  <title
     id="title1">web</title>
  <path
     d="m 0,0.50311958 v -0.00146 C 0.01304235,0.33103158 0.07398402,0.20304818 0.17985451,0.12213488 0.28428616,0.03976228 0.39744366,3.5284491e-5 0.52071942,3.5284491e-5 0.64979694,-0.00142392 0.77019503,0.04268068 0.87755077,0.13093698 0.98634534,0.21773408 1.04,0.34717658 1.04,0.51483998 v 0.010308 c 0,0.1691696 -0.0536547,0.2956467 -0.16244923,0.3824438 C 0.76875619,0.99584778 0.6483581,1.0399998 0.51928058,1.0399998 h -0.005802 C 0.38727898,1.038541 0.27124381,0.99438938 0.16393448,0.90613308 0.05657875,0.81933598 0.00148525,0.68546878 4.6414067e-5,0.50307248 Z m 0.48878654,-0.2309255 v -0.2324318 h -0.0348105 c -0.007241,0.00885 -0.0130423,0.019111 -0.0188441,0.02796 -0.005802,0.00885 -0.0116035,0.017651 -0.0174053,0.02796 -0.005802,0.00885 -0.0130423,0.020617 -0.0174053,0.029419 -0.005802,0.00885 -0.0101647,0.017651 -0.0145276,0.02796 -0.008726,0.014733 -0.0159664,0.029419 -0.0217682,0.042645 -0.007241,0.013227 -0.0130424,0.0265 -0.0174053,0.038268 0.008726,0.00588 0.0188441,0.013227 0.0304476,0.017651 0.0130423,0.00442 0.0261311,0.00885 0.0391735,0.011767 0.0145276,0.00297 0.02757,0.00442 0.0391735,0.00588 0.0130423,0.00146 0.0246459,0.00297 0.0333717,0.00297 z m 0.0609417,-0.2323847 v 0.2309255 c 0.007241,0 0.0159664,0.00146 0.0246459,0 0.008726,0 0.0188441,-0.00146 0.02757,-0.00297 0.0159664,-0.00297 0.0348105,-0.00734 0.0493381,-0.011768 0.0159664,-0.00588 0.0304476,-0.013227 0.0406123,-0.022076 -0.0174053,-0.042645 -0.0362494,-0.076489 -0.0551399,-0.108873 -0.0188905,-0.032384 -0.0406123,-0.060297 -0.0638194,-0.083832 v -0.00146 h -0.023207 z m -0.15664751,0.013227 v -0.00146 c -0.0101647,0.00442 -0.0203294,0.011768 -0.0319329,0.016192 -0.0101647,0.00442 -0.023207,0.010308 -0.0333717,0.016192 -0.0203294,0.010308 -0.0406123,0.022076 -0.0609417,0.035303 -0.0188441,0.013227 -0.0377346,0.02796 -0.0536547,0.042645 0.005802,0.00588 0.0130424,0.011768 0.0188441,0.016192 0.005802,0.00442 0.0130424,0.010308 0.0203294,0.016192 0.005802,0.00297 0.0130424,0.00734 0.0203294,0.013227 0.007241,0.00442 0.0159664,0.010308 0.0246459,0.016192 0.0116035,-0.0265 0.023207,-0.054413 0.0377346,-0.079454 0.0145276,-0.0265 0.0304476,-0.051495 0.0464141,-0.07357 0.001439,-0.00297 0.002924,-0.00588 0.005802,-0.00885 0.001439,-0.00146 0.002924,-0.00588 0.005802,-0.00885 z m 0.44381131,0.1088259 v -0.00146 c -0.0362494,-0.02796 -0.0681823,-0.051495 -0.10006873,-0.06618 -0.0318865,-0.014686 -0.0638193,-0.029419 -0.0928281,-0.041186 0.023207,0.023535 0.0435364,0.052954 0.0565788,0.080913 0.0145276,0.029419 0.0290088,0.060297 0.0406123,0.089715 0.005802,-0.00297 0.0130423,-0.00588 0.0217682,-0.011768 0.007241,-0.00442 0.0174053,-0.00885 0.0261311,-0.013227 0.008726,-0.00588 0.0159664,-0.011768 0.0246459,-0.017651 0.008726,-0.00734 0.0174053,-0.013227 0.023207,-0.019111 z m -0.0246459,0.3280306 H 0.9790583 c 0,-0.054413 -0.0116035,-0.1059075 -0.0333717,-0.1588613 -0.0203294,-0.0514946 -0.0493382,-0.09414 -0.0855875,-0.1309017 v -0.00146 c -0.007241,0.011767 -0.0174053,0.022076 -0.02757,0.029419 -0.0116035,0.00734 -0.0217682,0.013227 -0.0333717,0.01911 -0.007241,0.00442 -0.0145276,0.010308 -0.0217682,0.013227 -0.007241,0.00442 -0.0174053,0.00734 -0.0246459,0.011768 0.005802,0.011767 0.0116035,0.024994 0.0174053,0.036762 0.004363,0.013227 0.0116035,0.02796 0.0145276,0.041186 0.008726,0.023535 0.0145276,0.048529 0.0203294,0.07357 0.004363,0.022076 0.007241,0.045611 0.007241,0.06618 z M 0.28721025,0.27219408 v -0.001459 c -0.0116035,-0.00588 -0.0246459,-0.010308 -0.0348105,-0.016192 -0.0101647,-0.00734 -0.0203294,-0.014733 -0.0290088,-0.020617 -0.008726,-0.00442 -0.0174053,-0.010308 -0.0246459,-0.016192 -0.007241,-0.00588 -0.0130424,-0.011768 -0.0188441,-0.017651 -0.0377346,0.036762 -0.0652582,0.077948 -0.08266345,0.1265242 -0.01884411,0.048529 -0.03193288,0.1029892 -0.03773464,0.1618267 h 0.17841568 c 0,-0.041186 0.005802,-0.080913 0.0159664,-0.1206404 0.008726,-0.041186 0.0217682,-0.072064 0.0333717,-0.095599 z m 0.20157629,0.2162396 v -0.1691696 c -0.0116035,0.00146 -0.0261311,0.00146 -0.0391735,0 -0.0145276,-0.00146 -0.0290088,-0.00588 -0.0420511,-0.010308 -0.0116035,-0.00297 -0.0261311,-0.00588 -0.0377346,-0.010308 -0.0130424,-0.00297 -0.0261311,-0.00885 -0.0362494,-0.014733 -0.008726,0.014733 -0.0159664,0.032384 -0.0217682,0.051495 -0.007241,0.017651 -0.0116035,0.036762 -0.0159664,0.054413 -0.002924,0.017651 -0.004363,0.036762 -0.005802,0.052954 -0.001439,0.016192 -0.002924,0.032384 -0.002924,0.045611 h 0.20162271 z m 0.0609417,-0.1662042 v 0.1662042 H 0.7643933 c 0,-0.00885 0,-0.01911 -0.001439,-0.030878 -0.002924,-0.010308 -0.004363,-0.023535 -0.005802,-0.035302 -0.004363,-0.017651 -0.008726,-0.036762 -0.0145276,-0.054413 -0.005802,-0.016192 -0.0116035,-0.032384 -0.0188441,-0.045611 -0.002924,-0.00734 -0.005802,-0.016192 -0.008726,-0.022076 -0.004363,-0.00734 -0.008726,-0.011768 -0.0116035,-0.016192 -0.0159664,0.011768 -0.0377346,0.01911 -0.0638193,0.024994 -0.0246459,0.00588 -0.0536547,0.011768 -0.0797858,0.013227 H 0.5496818 Z M 0.23787209,0.53696288 H 0.05945642 c 0,0.024994 0.0043629,0.052954 0.01160352,0.086797 0.0072406,0.035303 0.02176819,0.067687 0.03773463,0.1029892 0.007241,0.017651 0.0159664,0.035303 0.0246459,0.052954 0.0101647,0.016192 0.0217682,0.033843 0.0333717,0.050035 0.008726,-0.00588 0.0174053,-0.010308 0.0246459,-0.014733 0.008726,-0.00442 0.0188441,-0.010308 0.02757,-0.014733 0.0101647,-0.00442 0.0203294,-0.00885 0.0319329,-0.014733 0.0101647,-0.00442 0.023207,-0.010308 0.0362494,-0.016192 -0.0116035,-0.0367612 -0.0246459,-0.0720637 -0.0333717,-0.1117908 -0.0101647,-0.0382679 -0.0159664,-0.0764888 -0.0159664,-0.1191342 z m 0.25091445,0.172088 v -0.172088 H 0.28716383 c 0,0.011768 0.001439,0.029419 0.004363,0.04707 0.001439,0.017651 0.005802,0.036762 0.008726,0.055919 0.005802,0.020617 0.0101647,0.041186 0.0159664,0.058837 0.005802,0.017651 0.0116035,0.032384 0.0174053,0.045611 0.0261311,-0.010308 0.0522158,-0.017651 0.0696211,-0.022076 0.0188441,-0.00588 0.0362494,-0.010308 0.0536547,-0.011767 h 0.0159664 c 0.005802,-0.00146 0.0116035,-0.00146 0.0159664,-0.00146 z m 0.0609417,-0.172088 v 0.1706288 c 0.0101647,0.00146 0.0217682,0.00297 0.0333717,0.00442 0.0130424,0.00146 0.0290088,0.00442 0.0420512,0.00734 l 0.0217682,0.00442 c 0.007241,0.00297 0.0159664,0.00442 0.023207,0.00588 0.008726,0.00297 0.0174053,0.00442 0.0261311,0.00734 0.007241,0.00297 0.0145276,0.00442 0.0203294,0.00734 0.0188441,-0.048529 0.0304476,-0.088256 0.0377346,-0.1220996 0.007241,-0.032384 0.0101647,-0.060297 0.0101647,-0.083832 v -0.00146 h -0.2146651 z m 0.42933012,0.00146 v -0.00146 H 0.81224617 v 0.00885 c -0.001439,0.02796 -0.005802,0.060297 -0.0116035,0.09414 -0.005802,0.032384 -0.0188441,0.070605 -0.0362494,0.1176751 0.023207,0.011768 0.0449752,0.023535 0.0623805,0.035303 0.0174053,0.011767 0.0333717,0.024994 0.0449752,0.036762 0.0246459,-0.024994 0.0464141,-0.058838 0.0652582,-0.1029892 0.0188441,-0.042645 0.0319329,-0.086797 0.0391735,-0.1338672 0.001439,-0.00885 0.001439,-0.017651 0.002924,-0.0265 v -0.02796 z m -0.49027179,0.4471644 v -0.2294664 c -0.0362494,0.00588 -0.0667434,0.013227 -0.0899505,0.019111 -0.023207,0.00588 -0.0406123,0.011768 -0.0522158,0.017651 0.008726,0.022076 0.0174053,0.041186 0.0261311,0.058838 0.008726,0.016192 0.0188441,0.033843 0.02757,0.048529 0.002924,0.00588 0.008726,0.011768 0.0130424,0.01911 0.004363,0.00588 0.007241,0.013227 0.0116035,0.019111 0.004363,0.00734 0.008726,0.016192 0.0130424,0.024994 0.005802,0.00734 0.0101647,0.016192 0.0159664,0.022076 h 0.0348105 z m 0.0609417,0 h 0.0333717 c 0.0130424,-0.010308 0.0261311,-0.024994 0.0362494,-0.041186 0.0116035,-0.016192 0.0246459,-0.035303 0.0333717,-0.051495 0.0101647,-0.01911 0.0203294,-0.036762 0.0290088,-0.054413 0.008679,-0.017651 0.0159664,-0.033843 0.0217682,-0.045611 -0.0159664,-0.00588 -0.0377346,-0.011767 -0.0594564,-0.017651 -0.0217218,-0.00588 -0.0522158,-0.011768 -0.094267,-0.017651 v 0.228007 z m 0.28716377,-0.1205934 v -0.00146 c -0.002924,-0.00442 -0.008726,-0.010308 -0.0130423,-0.014733 -0.004317,-0.00442 -0.0116035,-0.010308 -0.0188441,-0.014733 -0.005802,-0.00442 -0.0130423,-0.00885 -0.0217682,-0.013227 -0.008726,-0.00438 -0.0203294,-0.010308 -0.0304476,-0.016192 -0.005802,0.011768 -0.0159664,0.032384 -0.0304476,0.060297 -0.0130424,0.02796 -0.0362494,0.061803 -0.0652582,0.098565 0.0362494,-0.00588 0.0681823,-0.01911 0.0971911,-0.036762 0.0319329,-0.016192 0.0594564,-0.038268 0.0826635,-0.061803 z m -0.53956353,-0.04707 v -0.00146 c -0.0101647,0.00588 -0.0261311,0.013227 -0.0420511,0.020617 -0.0174053,0.00734 -0.0362494,0.016192 -0.0536547,0.02796 0.0101647,0.00885 0.0203294,0.017651 0.0290088,0.023535 0.008726,0.00734 0.0188441,0.013227 0.02757,0.01911 0.0159664,0.010308 0.0348106,0.020617 0.0536547,0.029419 0.0188441,0.0088 0.0420511,0.017651 0.0710599,0.026501 -0.0101647,-0.011768 -0.0174053,-0.026501 -0.0246459,-0.038268 -0.007241,-0.011767 -0.0159664,-0.023535 -0.023207,-0.035303 -0.007241,-0.011767 -0.0130423,-0.024994 -0.0188441,-0.036762 -0.007241,-0.011768 -0.0130423,-0.023535 -0.0188441,-0.035303 z"
     id="path1"
     style="stroke-width:0.0467408" />
</svg>
